<svg width="402.94" height="433.076" viewBox="0 0 106.611 114.585" xml:space="preserve" xmlns:xlink="http://www.w3.org/1999/xlink" xmlns="http://www.w3.org/2000/svg"><defs><linearGradient id="b"><stop style="stop-color:#f0630f;stop-opacity:1" offset="0"/><stop style="stop-color:#f78030;stop-opacity:1" offset=".551"/><stop style="stop-color:#f4824b;stop-opacity:1" offset=".901"/></linearGradient><linearGradient id="a"><stop style="stop-color:#648e2e;stop-opacity:1" offset="0"/><stop style="stop-color:#ace01e;stop-opacity:1" offset="1"/></linearGradient><linearGradient xlink:href="#a" id="d" x1="42.31" y1="100.872" x2="140.547" y2="100.794" gradientUnits="userSpaceOnUse"/><radialGradient xlink:href="#b" id="c" cx="105.946" cy="112.846" fx="105.946" fy="112.846" r="36.507" gradientTransform="matrix(1 0 0 .30584 0 78.333)" gradientUnits="userSpaceOnUse" spreadMethod="reflect"/></defs><g style="display:inline"><path style="display:inline;opacity:1;fill:url(#c);fill-opacity:1;stroke:none;stroke-width:.1;stroke-linecap:round;stroke-dasharray:none;stroke-opacity:1" d="m70.066 107.2 2.886 4.58 5.394 2.885 7.214 3.513 4.265 2.196 10.539 2.258 9.91 1.003 12.358.377 6.21-.502s3.835-.953 5.532-1.915c1.23-.697 3.25-2.727 3.25-2.727l1.756-3.45-.314-2.823-.25-1.003 2.32-2.635 1.318-3.952-.628-2.383-1.192-.941-.94 2.258-1.318 3.136-2.132 2.133-3.639 1.945-3.826.439-5.395.25-14.991-.376-7.465-1.003-15.18-3.639-9.723-2.07s-2.599-.878-3.951-.94c-.739-.034-2.196.313-2.196.313l-.439 1.004.063 1.443z" transform="translate(-39.81 -46.447)"/><path style="display:inline;opacity:1;fill:#6e7422;fill-opacity:1;stroke:none;stroke-width:.1;stroke-linecap:round;stroke-dasharray:none;stroke-opacity:1" d="m71.384 81.232 5.307 1.991c.212 4.064 1.224 11.912 4.917 12.781 6.563 1.544 4.434.766 24.056 2.478 2.953.257 7.621-4.83 7.621-4.83s2.374 3.637 4.234 4.014c21.57 4.375 14.69-.355 21.485-.564l-.502-1.506-8.345-5.378-16.056-5.436s-2.197 6.402-4.328 8.932c-.763.906-1.754 1.723-2.886 2.07-1.54.474-10.108.075-10.108.075s-6.018-.01-8.832-.93c-2.623-.857-5.403-2.031-7.154-4.163-1.671-2.033-2.572-7.464-2.572-7.464l-1.694-.722z" transform="translate(-39.81 -46.447)"/><path style="display:inline;opacity:1;fill:url(#d);fill-opacity:1;stroke:none;stroke-width:.899999;stroke-linecap:round;stroke-dasharray:none;stroke-opacity:1" d="m42.31 100.019 6.392 6.699 3.415 3.504L55 112.129l3.46 2.573 8.219 4.668 16.435 6.712 8.217 3.45-3.325 8.092-2.76 7.966.565 3.01 2.925 4.049s4.612 1.634 7 1.547c2.416-.09 6.948-2.083 6.948-2.083l3.513-4.453 8.217-5.018 9.786-4.893 6.607-5.25 2.802-2.716 2.509-4.956.627-4.328s-4.13 2.489-6.43 3.105c-3.138.842-6.472.725-9.722.721-7.968-.008-16.052-.113-23.836-1.819-5.51-1.207-15.868-5.885-15.868-5.885s-7.633-3.918-10.133-7.413c-.77-1.077-1.568-3.7-1.568-3.7l1.535-1.878 3.439.214 12.088 2.667 6.46 2.195s11.49 2.598 17.342 3.072c7.473.604 22.49-.312 22.49-.312s3.894-2.096 5.207-3.795c1.457-1.884 2.637-4.267 2.619-6.649-.013-1.656-1.892-4.595-1.892-4.595s-1.025.703-1.675.968c-2.498 1.014-5.313.88-7.995.895-3.875.023-8.04.447-11.567-1.157-1.724-.784-2.22-4.554-4.142-3.889-2.232.772-4.48 3.188-6.806 4.265-1.95.905-4.187-.157-6.272-.345-5.732-.514-11.491-.647-17.133-2.135-1.118-.295-2.285-1.636-2.99-2.553-2.153-2.804-3.162-9.266-3.162-9.266l-6.413-2.344 2.781-4.792c1.343.746 2.018.837 3.81 1.192l4.08.887c18.244.816 35.041 1.927 59.347 1.508l.177-4.08-9.226-7.275s-4.7-4.532-6.143-6.963c-.512-.863-1.42-3.127-1.42-3.127s-2.85-4.851-4.99-6.587c-1.989-1.615-4.434-2.802-6.952-3.281-2.944-.56-8.972.585-8.972.585l-5.765 3.406-3.016-3.016s-3.662-1.691-5.63-1.978c-3.824-.558-11.58.558-11.58.558s-5.447 2.143-7.62 4.02c-2.127 1.836-4.241 4.556-4.976 6.803C62.578 63.764 55 71.677 55 71.677l-4.79 8.162-6.92 16.5z" transform="translate(-39.81 -46.447)"/><path style="display:inline;fill:none;stroke:#6e7422;stroke-width:.964999;stroke-linecap:round;stroke-dasharray:none;stroke-opacity:1" d="M75.093 101.839c-3.674-1.263-6.074-.383-8.605 2.395M94.342 104.127c14.615-4.637 20.128-18.667 19.67-18.667" transform="translate(-39.81 -46.447)"/><path style="display:inline;opacity:1;fill:none;fill-opacity:1;stroke:#6e7422;stroke-width:.899999;stroke-linecap:round;stroke-dasharray:none;stroke-opacity:1" d="M138.275 96.172c.548.343 2.087 2.725 1.983 4.684" transform="translate(-39.81 -46.447)"/><path style="display:inline;fill:none;stroke:#2c2f0a;stroke-width:.964999;stroke-linecap:round;stroke-dasharray:none;stroke-opacity:1" d="m114.044 84.837 3.141 10.437M117.185 95.363c5.277 2.267 12.895 2.22 20.214.95l.664-.372" transform="translate(-39.81 -46.447)"/><path style="display:inline;fill:none;stroke:#6e7422;stroke-width:.957734;stroke-dasharray:none;stroke-opacity:1" d="M132.752 131.145c2.242-3.907 4.323-5.38 4.02-11.184m.807-23.832c.98-.979 1.08-2.077 2.124-2.84 1.239-2.117 3.555-2.77 4.48-5.621.417-.817.826-1.67 1.128-2.949.507-1.36.89-3.3.117-4.641-.17-.296-.898-.49-.898-.49-1.247-.177-2.824.142-4.283.285-.1-.753-.418-1.209.008-2.277.342-.333 1.232-.014.314-1.5 0 0-1.532-1.928-2.484-2.692-1.357-1.09-3.124-1.576-4.511-2.626-2.758-2.09-2.487-4.401-7.455-7.221l-.573-2.328c-2.166-4.1-3.82-7.212-6.948-9.645-2.636-2.05-6.925-3.257-9.318-3.677-5.017-.88-11.156 4.433-11.716 3.888-1.38-1.431-6.436-5.163-11.011-4.85-4.373.3-5.894-.018-12.972 2.156-2.4.737-7.613 4.952-9.06 7.976-1.846 3.858-1.131 3.004-1.953 4.372-3.595 5.983-9.03 11.395-12.18 19.382-3.337 3.82-6.54 14.866-8.075 18.998" transform="translate(-39.81 -46.447)"/><path style="display:inline;fill:none;stroke:#96440f;stroke-width:.964999;stroke-linecap:round;stroke-dasharray:none;stroke-opacity:1" d="M70.08 104.145c-1.64 1.343-.001 8.086 10.912 12.065.852.31 5.842 3.439 9.056 4.408 8.195 2.471 20.687 3.476 25.452 3.398 0 0 9.856.539 14.548-.71 2.518-.67 5.116-1.83 7.05-3.632 1.064-.991 1.983-2.34 2.268-3.727.245-1.196-.491-3.629-.491-3.629" transform="translate(-39.81 -46.447)"/><path style="display:inline;fill:none;stroke:#96440f;stroke-width:.964999;stroke-linecap:round;stroke-dasharray:none;stroke-opacity:1" d="M70.08 104.035c.716-.54 1.573-.614 6.779.51 7.39 1.595 18.352 4.81 23.822 5.852 9.967 1.897 21.085 1.874 30.427.887 4.133-.437 8.693-3.662 9.168-10.263" transform="translate(-39.81 -46.447)"/><path style="display:inline;fill:none;stroke:#96440f;stroke-width:.964999;stroke-linecap:round;stroke-dasharray:none;stroke-opacity:1" d="M74.708 107.075s6.65 4.031 10.287 5.332c5.414 1.936 11.175 2.815 16.874 3.576 6.601.88 13.296 1.474 19.947 1.129 4.188-.218 8.524-.456 12.42-2.008 1.692-.673 4.517-3.073 4.517-3.073" transform="translate(-39.81 -46.447)"/><path style="display:inline;fill:none;stroke:#6e7422;stroke-width:.964999;stroke-linecap:round;stroke-dasharray:none;stroke-opacity:1" d="M73.594 76.246c4.957-5.776 20.956-5.878 31.476-4.84 3.944.388 8.278 7.898 8.153 7.818" transform="translate(-39.81 -46.447)"/><path style="display:inline;fill:none;stroke:#6e7422;stroke-width:.964999;stroke-linecap:round;stroke-dasharray:none;stroke-opacity:1" d="M77.682 77.453c3.169-5.803 21.616-2.822 23.999 1.081M137.937 79.413c-6.833-5.372-11.971-2.728-16.999.439M74.871 63.073c20.036-12.995 33.134-1.834 38.352 16.286" transform="translate(-39.81 -46.447)"/><path style="display:inline;fill:none;stroke:#6e7422;stroke-width:.964999;stroke-linecap:round;stroke-dasharray:none;stroke-opacity:1" d="M117.802 79.099c6.517-7.707 16.93-5.644 22.268-1.882M94.718 71.133c6.29 1.38 11.058 4.124 14.678 7.84" transform="translate(-39.81 -46.447)"/><path style="display:inline;fill:none;stroke:#261f0d;stroke-width:.964999;stroke-linecap:round;stroke-dasharray:none;stroke-opacity:1" d="M48.114 80.015s3.432-4.181 5.785-5.347c2.406-1.192 4.998-1.844 7.932-1.394 3.56.547 16.098 5.079 16.145 4.702 20.708 1.036 41.562 2.256 62.718 1.951" transform="translate(-39.81 -46.447)"/><path style="display:inline;fill:none;stroke:#2c2f0a;stroke-width:.964999;stroke-linecap:round;stroke-dasharray:none;stroke-opacity:1" d="M78.153 82.944s1.608 7.22 4.17 9.58c2.022 1.863 7.806 2.661 7.806 2.661s12.556.916 17.21.09c3.986-.709 6.52-10.247 6.52-10.247" transform="translate(-39.81 -46.447)"/><path style="display:inline;fill:none;stroke:#5f6e2c;stroke-width:.964999;stroke-linecap:round;stroke-dasharray:none;stroke-opacity:1" d="M105.964 147.746c-4.35 1.378-8.446 1.485-12.952 1.242" transform="translate(-39.81 -46.447)"/><path style="display:inline;fill:none;stroke:#2c2f0a;stroke-width:.958;stroke-linecap:round;stroke-dasharray:none;stroke-opacity:1" d="M42.65 100.4s-1.404-1.257-1.557-.718c-2.735 9.678 2.076 19.945 6.347 28.8 3.249 6.736 8.452 12.561 14.14 17.42 6.166 5.267 13.492 9.264 21.056 12.194 3.09 1.198 9.718 2.116 9.718 2.116 5.655.917 10.71-.233 16.01-.933 4.553-.602 9.167-1.228 13.492-2.799 1.929-.7 4.397-2.02 5.382-2.988.96-.943 2.243-3.36 2.243-3.36 1.417-2.667 3.302-5.083 5.482-7.34 2.42-2.135 5.519-2.788 7.237-5.245l1.865-2.667c-4.094-1.171-8.288-2.216-11.455-3.271" transform="translate(-39.81 -46.447)"/><path style="display:inline;fill:none;stroke:#6e7422;stroke-width:.964999;stroke-linecap:round;stroke-dasharray:none;stroke-opacity:1" d="M92.79 48.569c4.259 2.588 5.79 6.284 5.678 9.935M104.323 62.629c6.568-2.582 15.92-1.918 22.899 1.75M72.343 97.359c-1.11-.08-1.83.337-2.351.843M77.719 82.737l-8.672-2.77c-13.17-1.654-15.366 1.314-19.817 2.483M122.004 72.826c5.48-2.347 11.13-2.605 16.942 1.38" transform="translate(-39.81 -46.447)"/><path style="display:inline;fill:none;stroke:#261f0d;stroke-width:.964999;stroke-linecap:round;stroke-dasharray:none;stroke-opacity:1" d="M48.17 80.016s6.415-4.78 10.394-4.841c3.782-.058 19.545 7.724 19.545 7.724" transform="translate(-39.81 -46.447)"/><path style="display:inline;opacity:1;fill:#261f0d;fill-opacity:1;stroke:none;stroke-width:.958001;stroke-linecap:round;stroke-dasharray:none;stroke-opacity:1" d="M130.19 79.622s13.2-.616 14.278-.557c1.41.078 1.932 1.572 1.953 2.984.04 2.775-1.624 6.165-2.949 8.063-1.512 2.168-5.473 6.519-5.665 6.391-8.977 1.51-19.806.165-20.193-.97l-3.701-10.851s-.38 2.106-.846 3.053c-1.436 2.918-3.893 7.763-5.866 7.799-6.1.11-13.122.802-19.383-.816-2.127-.55-4.368-1.37-5.896-2.948-2.254-2.328-4.067-8.83-4.067-8.83l-8.128-3.586s-4-1.934-6.102-2.634c-1.914-.637-5.883-1.412-5.883-1.412s-4.281 1.583-5.616 2.725c-.81.692-3.04.989-3.04.989l1.998-2.673s1.035-1.298 1.705-1.77c.773-.546 1.658-.99 2.587-1.171 2.86-.556 8.731.36 8.731.36l9.848 3.073 3.388.94 26.784 1.443z" transform="translate(-39.81 -46.447)"/><path style="display:inline;fill:#6e7422;fill-opacity:1;stroke:none;stroke-width:.964999;stroke-linecap:round;stroke-dasharray:none;stroke-opacity:1" d="M83.553 85.058v5.144s2.58 1.522 4.014 1.882c1.93.483 5.96.313 5.96.313l11.04.502s2.515-.157 3.387-.94c1.52-1.37 2.258-5.71 2.258-5.71.394-.606-7.608-.362-13.926 2.196-2.892 1.171-6.35-.13-9.283-1.191-1.282-.464-3.45-2.196-3.45-2.196ZM119.403 88.621s.621 3.468 1.907 4.435c1.81 1.361 4.48.721 6.742.843 1.772.096 5.323-.089 5.323-.089s2.937.104 4.08-.665c1.929-1.295 3.638-5.943 3.638-5.943s-3.921 2.335-6.121 2.705c-1.23.207-2.533.05-3.726-.31-1.843-.558-3.145-2.561-5.056-2.795-2.325-.283-6.787 1.819-6.787 1.819z" transform="translate(-39.81 -46.447)"/><path style="display:inline;opacity:1;fill:#251f0e;fill-opacity:1;stroke:none;stroke-width:.957766;stroke-linecap:round;stroke-dasharray:none;stroke-opacity:1" d="m41.352 99.9-1.099 4.984s.542 5.836 1.29 8.655c1.056 3.984 3.308 8.774 4.478 11.524.683 1.605 1.358 3.452 2.219 4.968.964 1.697 2.261 3.292 3.439 4.847 2.117 2.798 4.405 5.64 6.89 8.112 2.426 2.414 5.217 4.437 8.002 6.417 3.41 2.425 10.628 6.669 10.628 6.669l11.377 3.649 10.628.629s12.736-1.276 18.941-2.768c2.032-.489 4.083-1.049 5.94-2.013 1.51-.786 2.98-1.755 4.125-3.02 1.761-1.947 2.351-4.751 4-6.795 1.675-2.073 4.852-4.073 7-5.644 1.434-1.049 2.084-1.245 3.27-2.572.698-.782 1.921-2.856 1.921-2.856l-11.878-3.397-7.064 5.662-9.752 5.536-6.751 3.397-2.626 1.636-1.625 1.887-1.5 2.768-3.751 1.384-2.876 1.133-4.126-.504s-2.224-.692-3.188-1.32c-.94-.614-1.795-1.406-2.438-2.328-.837-1.2-1.75-4.027-1.75-4.027l1.463-4.278 1.912-5.41 1.626-4.278 1.125-2.139v-1.258l-14.253-5.41-13.253-6.417-6.877-3.775-7.001-6.165-4.751-4.781z" transform="translate(-39.81 -46.447)"/><path style="display:inline;opacity:1;fill:#256234;fill-opacity:1;stroke:#256234;stroke-width:1.558;stroke-linecap:round;stroke-dasharray:none;stroke-opacity:1" d="M85.095 152.214s6.617 4.797 11.632 4.676c5.226-.127 15.208-10.17 15.368-8.816 1.406 1.785 3.366 4.845 2.727 6.486 0 0-8.477 3.66-16.654 3.638-3.844-.01-14.3-1.4-13.11-2.07z" transform="translate(-39.81 -46.447)"/><path style="display:inline;fill:none;stroke:#2d300a;stroke-width:.964999;stroke-linecap:round;stroke-dasharray:none;stroke-opacity:1" d="M42.637 100.394s3.46 4.14 5.412 5.991c3.322 3.151 6.806 6.191 10.664 8.657 5.689 3.635 18.19 8.907 18.19 8.907s7.508 2.483 14.051 5.395c-.391 3.708-3.617 10.749-4.96 14.792.007 0-.998 2.87-.685 3.9.824 2.717 3.43 5.072 6.147 5.897 3.897 1.182 8.73.252 12.029-2.134 1.043-.755.78-2.535 1.83-3.402 3.256-2.685 7.97-4.877 7.97-4.877s7.582-3.382 11.04-5.646c3.019-1.883 5.436-4.547 8.28-6.649" transform="translate(-39.81 -46.447)"/><path style="display:inline;opacity:1;fill:none;fill-opacity:1;stroke:#404614;stroke-width:1.558;stroke-linecap:round;stroke-dasharray:none;stroke-opacity:1" d="M88.532 130.758c-3.88 5.154-5.334 10.712-5.677 16.456M140.572 136.494c-6.784 4.185-13.256 8.97-17.564 17.94" transform="translate(-39.81 -46.447)"/><path style="opacity:1;fill:none;fill-opacity:1;stroke:#96440f;stroke-width:.899999;stroke-linecap:round;stroke-dasharray:none;stroke-opacity:1" d="M140.258 101.033c3.609 3.079 2.004 6.946-1.39 10.84" transform="translate(-39.81 -46.447)"/><path style="opacity:1;fill:none;fill-opacity:1;stroke:none;stroke-width:.899999;stroke-linecap:round;stroke-dasharray:none;stroke-opacity:1" d="m71.07 81.169 5.394 2.007" transform="translate(-39.81 -46.447)"/></g></svg>